<svg width="422" height="92" viewBox="0 0 422 92" fill="none" xmlns="http://www.w3.org/2000/svg">
<path d="M12.3182 69.75H1.77273L17.8409 23.2045H30.5227L46.5682 69.75H36.0227L24.3636 33.8409H24L12.3182 69.75ZM11.6591 51.4545H36.5682V59.1364H11.6591V51.4545ZM80.1591 34.8409L67.9545 69.75H57.0455L44.8409 34.8409H55.0682L62.3182 59.8182H62.6818L69.9091 34.8409H80.1591ZM94.1307 70.4091C91.9034 70.4091 89.9186 70.0227 88.1761 69.25C86.4337 68.4621 85.0549 67.303 84.0398 65.7727C83.0398 64.2273 82.5398 62.303 82.5398 60C82.5398 58.0606 82.8958 56.4318 83.608 55.1136C84.3201 53.7955 85.2898 52.7348 86.517 51.9318C87.7443 51.1288 89.1383 50.5227 90.6989 50.1136C92.2746 49.7045 93.9261 49.4167 95.6534 49.25C97.6837 49.0379 99.3201 48.8409 100.562 48.6591C101.805 48.4621 102.706 48.1742 103.267 47.7955C103.828 47.4167 104.108 46.8561 104.108 46.1136V45.9773C104.108 44.5379 103.653 43.4242 102.744 42.6364C101.85 41.8485 100.578 41.4545 98.9261 41.4545C97.1837 41.4545 95.7973 41.8409 94.767 42.6136C93.7367 43.3712 93.0549 44.3258 92.7216 45.4773L83.767 44.75C84.2216 42.6288 85.1155 40.7955 86.4489 39.25C87.7822 37.6894 89.5019 36.4924 91.608 35.6591C93.7292 34.8106 96.1837 34.3864 98.9716 34.3864C100.911 34.3864 102.767 34.6136 104.54 35.0682C106.328 35.5227 107.911 36.2273 109.29 37.1818C110.684 38.1364 111.782 39.3636 112.585 40.8636C113.388 42.3485 113.79 44.1288 113.79 46.2045V69.75H104.608V64.9091H104.335C103.775 66 103.025 66.9621 102.085 67.7955C101.146 68.6136 100.017 69.2576 98.6989 69.7273C97.3807 70.1818 95.858 70.4091 94.1307 70.4091ZM96.9034 63.7273C98.3277 63.7273 99.5852 63.447 100.676 62.8864C101.767 62.3106 102.623 61.5379 103.244 60.5682C103.866 59.5985 104.176 58.5 104.176 57.2727V53.5682C103.873 53.7652 103.456 53.947 102.926 54.1136C102.411 54.2652 101.828 54.4091 101.176 54.5455C100.525 54.6667 99.8731 54.7803 99.2216 54.8864C98.5701 54.9773 97.9792 55.0606 97.4489 55.1364C96.3125 55.303 95.3201 55.5682 94.4716 55.9318C93.6231 56.2955 92.964 56.7879 92.4943 57.4091C92.0246 58.0152 91.7898 58.7727 91.7898 59.6818C91.7898 61 92.267 62.0076 93.2216 62.7045C94.1913 63.3864 95.4186 63.7273 96.9034 63.7273ZM139.869 34.8409V42.1136H118.847V34.8409H139.869ZM123.619 26.4773H133.301V59.0227C133.301 59.9167 133.438 60.6136 133.71 61.1136C133.983 61.5985 134.362 61.9394 134.847 62.1364C135.347 62.3333 135.922 62.4318 136.574 62.4318C137.028 62.4318 137.483 62.3939 137.938 62.3182C138.392 62.2273 138.741 62.1591 138.983 62.1136L140.506 69.3182C140.021 69.4697 139.339 69.6439 138.46 69.8409C137.581 70.053 136.513 70.1818 135.256 70.2273C132.922 70.3182 130.877 70.0076 129.119 69.2955C127.377 68.5833 126.021 67.4773 125.051 65.9773C124.081 64.4773 123.604 62.5833 123.619 60.2955V26.4773ZM156.131 70.4091C153.903 70.4091 151.919 70.0227 150.176 69.25C148.434 68.4621 147.055 67.303 146.04 65.7727C145.04 64.2273 144.54 62.303 144.54 60C144.54 58.0606 144.896 56.4318 145.608 55.1136C146.32 53.7955 147.29 52.7348 148.517 51.9318C149.744 51.1288 151.138 50.5227 152.699 50.1136C154.275 49.7045 155.926 49.4167 157.653 49.25C159.684 49.0379 161.32 48.8409 162.562 48.6591C163.805 48.4621 164.706 48.1742 165.267 47.7955C165.828 47.4167 166.108 46.8561 166.108 46.1136V45.9773C166.108 44.5379 165.653 43.4242 164.744 42.6364C163.85 41.8485 162.578 41.4545 160.926 41.4545C159.184 41.4545 157.797 41.8409 156.767 42.6136C155.737 43.3712 155.055 44.3258 154.722 45.4773L145.767 44.75C146.222 42.6288 147.116 40.7955 148.449 39.25C149.782 37.6894 151.502 36.4924 153.608 35.6591C155.729 34.8106 158.184 34.3864 160.972 34.3864C162.911 34.3864 164.767 34.6136 166.54 35.0682C168.328 35.5227 169.911 36.2273 171.29 37.1818C172.684 38.1364 173.782 39.3636 174.585 40.8636C175.388 42.3485 175.79 44.1288 175.79 46.2045V69.75H166.608V64.9091H166.335C165.775 66 165.025 66.9621 164.085 67.7955C163.146 68.6136 162.017 69.2576 160.699 69.7273C159.381 70.1818 157.858 70.4091 156.131 70.4091ZM158.903 63.7273C160.328 63.7273 161.585 63.447 162.676 62.8864C163.767 62.3106 164.623 61.5379 165.244 60.5682C165.866 59.5985 166.176 58.5 166.176 57.2727V53.5682C165.873 53.7652 165.456 53.947 164.926 54.1136C164.411 54.2652 163.828 54.4091 163.176 54.5455C162.525 54.6667 161.873 54.7803 161.222 54.8864C160.57 54.9773 159.979 55.0606 159.449 55.1364C158.313 55.303 157.32 55.5682 156.472 55.9318C155.623 56.2955 154.964 56.7879 154.494 57.4091C154.025 58.0152 153.79 58.7727 153.79 59.6818C153.79 61 154.267 62.0076 155.222 62.7045C156.191 63.3864 157.419 63.7273 158.903 63.7273ZM183.301 69.75V34.8409H192.688V40.9318H193.051C193.688 38.7652 194.756 37.1288 196.256 36.0227C197.756 34.9015 199.483 34.3409 201.438 34.3409C201.922 34.3409 202.445 34.3712 203.006 34.4318C203.566 34.4924 204.059 34.5758 204.483 34.6818V43.2727C204.028 43.1364 203.4 43.0152 202.597 42.9091C201.794 42.803 201.059 42.75 200.392 42.75C198.968 42.75 197.695 43.0606 196.574 43.6818C195.468 44.2879 194.589 45.1364 193.938 46.2273C193.301 47.3182 192.983 48.5758 192.983 50V69.75H183.301ZM249.733 36.5909C249.551 34.7576 248.771 33.3333 247.392 32.3182C246.013 31.303 244.142 30.7955 241.778 30.7955C240.172 30.7955 238.816 31.0227 237.71 31.4773C236.604 31.9167 235.756 32.5303 235.165 33.3182C234.589 34.1061 234.301 35 234.301 36C234.271 36.8333 234.445 37.5606 234.824 38.1818C235.218 38.803 235.756 39.3409 236.438 39.7955C237.119 40.2348 237.907 40.6212 238.801 40.9545C239.695 41.2727 240.65 41.5455 241.665 41.7727L245.847 42.7727C247.877 43.2273 249.741 43.8333 251.438 44.5909C253.134 45.3485 254.604 46.2803 255.847 47.3864C257.089 48.4924 258.051 49.7955 258.733 51.2955C259.43 52.7955 259.786 54.5152 259.801 56.4545C259.786 59.303 259.059 61.7727 257.619 63.8636C256.195 65.9394 254.134 67.553 251.438 68.7045C248.756 69.8409 245.521 70.4091 241.733 70.4091C237.975 70.4091 234.703 69.8333 231.915 68.6818C229.142 67.5303 226.975 65.8258 225.415 63.5682C223.869 61.2955 223.059 58.4848 222.983 55.1364H232.506C232.612 56.697 233.059 58 233.847 59.0455C234.65 60.0758 235.718 60.8561 237.051 61.3864C238.4 61.9015 239.922 62.1591 241.619 62.1591C243.286 62.1591 244.733 61.9167 245.96 61.4318C247.203 60.947 248.165 60.2727 248.847 59.4091C249.528 58.5455 249.869 57.553 249.869 56.4318C249.869 55.3864 249.559 54.5076 248.938 53.7955C248.331 53.0833 247.438 52.4773 246.256 51.9773C245.089 51.4773 243.657 51.0227 241.96 50.6136L236.892 49.3409C232.968 48.3864 229.869 46.8939 227.597 44.8636C225.324 42.8333 224.195 40.0985 224.21 36.6591C224.195 33.8409 224.945 31.3788 226.46 29.2727C227.991 27.1667 230.089 25.5227 232.756 24.3409C235.422 23.1591 238.453 22.5682 241.847 22.5682C245.301 22.5682 248.316 23.1591 250.892 24.3409C253.483 25.5227 255.498 27.1667 256.938 29.2727C258.377 31.3788 259.119 33.8182 259.165 36.5909H249.733ZM289.307 82.8409V64.1591H289.011C288.557 65.1288 287.913 66.0909 287.08 67.0455C286.261 67.9848 285.193 68.7652 283.875 69.3864C282.572 70.0076 280.981 70.3182 279.102 70.3182C276.451 70.3182 274.049 69.6364 271.898 68.2727C269.761 66.8939 268.064 64.8712 266.807 62.2045C265.564 59.5227 264.943 56.2348 264.943 52.3409C264.943 48.3409 265.587 45.0152 266.875 42.3636C268.163 39.697 269.875 37.7045 272.011 36.3864C274.163 35.053 276.519 34.3864 279.08 34.3864C281.034 34.3864 282.663 34.7197 283.966 35.3864C285.284 36.0379 286.345 36.8561 287.148 37.8409C287.966 38.8106 288.587 39.7652 289.011 40.7045H289.42V34.8409H298.966V82.8409H289.307ZM282.17 62.6136C283.731 62.6136 285.049 62.1894 286.125 61.3409C287.216 60.4773 288.049 59.2727 288.625 57.7273C289.216 56.1818 289.511 54.3712 289.511 52.2955C289.511 50.2197 289.223 48.4167 288.648 46.8864C288.072 45.3561 287.239 44.1742 286.148 43.3409C285.057 42.5076 283.731 42.0909 282.17 42.0909C280.58 42.0909 279.239 42.5227 278.148 43.3864C277.057 44.25 276.231 45.447 275.67 46.9773C275.11 48.5076 274.83 50.2803 274.83 52.2955C274.83 54.3258 275.11 56.1212 275.67 57.6818C276.246 59.2273 277.072 60.4394 278.148 61.3182C279.239 62.1818 280.58 62.6136 282.17 62.6136ZM329.125 54.8864V34.8409H338.807V69.75H329.511V63.4091H329.148C328.36 65.4545 327.049 67.0985 325.216 68.3409C323.398 69.5833 321.178 70.2045 318.557 70.2045C316.223 70.2045 314.17 69.6742 312.398 68.6136C310.625 67.553 309.239 66.0455 308.239 64.0909C307.254 62.1364 306.754 59.7955 306.739 57.0682V34.8409H316.42V55.3409C316.436 57.4015 316.989 59.0303 318.08 60.2273C319.17 61.4242 320.633 62.0227 322.466 62.0227C323.633 62.0227 324.723 61.7576 325.739 61.2273C326.754 60.6818 327.572 59.8788 328.193 58.8182C328.83 57.7576 329.14 56.447 329.125 54.8864ZM356.506 70.4091C354.278 70.4091 352.294 70.0227 350.551 69.25C348.809 68.4621 347.43 67.303 346.415 65.7727C345.415 64.2273 344.915 62.303 344.915 60C344.915 58.0606 345.271 56.4318 345.983 55.1136C346.695 53.7955 347.665 52.7348 348.892 51.9318C350.119 51.1288 351.513 50.5227 353.074 50.1136C354.65 49.7045 356.301 49.4167 358.028 49.25C360.059 49.0379 361.695 48.8409 362.938 48.6591C364.18 48.4621 365.081 48.1742 365.642 47.7955C366.203 47.4167 366.483 46.8561 366.483 46.1136V45.9773C366.483 44.5379 366.028 43.4242 365.119 42.6364C364.225 41.8485 362.953 41.4545 361.301 41.4545C359.559 41.4545 358.172 41.8409 357.142 42.6136C356.112 43.3712 355.43 44.3258 355.097 45.4773L346.142 44.75C346.597 42.6288 347.491 40.7955 348.824 39.25C350.157 37.6894 351.877 36.4924 353.983 35.6591C356.104 34.8106 358.559 34.3864 361.347 34.3864C363.286 34.3864 365.142 34.6136 366.915 35.0682C368.703 35.5227 370.286 36.2273 371.665 37.1818C373.059 38.1364 374.157 39.3636 374.96 40.8636C375.763 42.3485 376.165 44.1288 376.165 46.2045V69.75H366.983V64.9091H366.71C366.15 66 365.4 66.9621 364.46 67.7955C363.521 68.6136 362.392 69.2576 361.074 69.7273C359.756 70.1818 358.233 70.4091 356.506 70.4091ZM359.278 63.7273C360.703 63.7273 361.96 63.447 363.051 62.8864C364.142 62.3106 364.998 61.5379 365.619 60.5682C366.241 59.5985 366.551 58.5 366.551 57.2727V53.5682C366.248 53.7652 365.831 53.947 365.301 54.1136C364.786 54.2652 364.203 54.4091 363.551 54.5455C362.9 54.6667 362.248 54.7803 361.597 54.8864C360.945 54.9773 360.354 55.0606 359.824 55.1364C358.688 55.303 357.695 55.5682 356.847 55.9318C355.998 56.2955 355.339 56.7879 354.869 57.4091C354.4 58.0152 354.165 58.7727 354.165 59.6818C354.165 61 354.642 62.0076 355.597 62.7045C356.566 63.3864 357.794 63.7273 359.278 63.7273ZM396.54 70.3182C393.888 70.3182 391.487 69.6364 389.335 68.2727C387.199 66.8939 385.502 64.8712 384.244 62.2045C383.002 59.5227 382.381 56.2348 382.381 52.3409C382.381 48.3409 383.025 45.0152 384.312 42.3636C385.6 39.697 387.313 37.7045 389.449 36.3864C391.6 35.053 393.956 34.3864 396.517 34.3864C398.472 34.3864 400.1 34.7197 401.403 35.3864C402.722 36.0379 403.782 36.8561 404.585 37.8409C405.403 38.8106 406.025 39.7652 406.449 40.7045H406.744V23.2045H416.403V69.75H406.858V64.1591H406.449C405.994 65.1288 405.35 66.0909 404.517 67.0455C403.699 67.9848 402.631 68.7652 401.312 69.3864C400.009 70.0076 398.419 70.3182 396.54 70.3182ZM399.608 62.6136C401.169 62.6136 402.487 62.1894 403.562 61.3409C404.653 60.4773 405.487 59.2727 406.062 57.7273C406.653 56.1818 406.949 54.3712 406.949 52.2955C406.949 50.2197 406.661 48.4167 406.085 46.8864C405.509 45.3561 404.676 44.1742 403.585 43.3409C402.494 42.5076 401.169 42.0909 399.608 42.0909C398.017 42.0909 396.676 42.5227 395.585 43.3864C394.494 44.25 393.669 45.447 393.108 46.9773C392.547 48.5076 392.267 50.2803 392.267 52.2955C392.267 54.3258 392.547 56.1212 393.108 57.6818C393.684 59.2273 394.509 60.4394 395.585 61.3182C396.676 62.1818 398.017 62.6136 399.608 62.6136Z" fill="black"/>
<path d="M71.7261 47.6967C72.353 47.4226 73.0583 46.7827 73.842 45.7773C74.6256 44.772 75.0958 43.9494 75.2526 43.3097C74.9391 43.3097 74.5865 43.4925 74.1946 43.8581C73.8028 44.1322 73.3718 44.6349 72.9016 45.3661C72.4314 46.0059 72.0396 46.7827 71.7261 47.6967ZM71.0208 50.5757C70.9424 51.1241 70.9033 51.6268 70.9033 52.0838C70.9816 52.8148 71.1775 53.3175 71.491 53.5918C71.8045 53.8659 72.353 53.9574 73.1367 53.8659C75.0958 53.5918 77.1334 52.6322 79.2492 50.9869C81.4434 49.2505 83.1284 47.5597 84.3038 45.9146L86.0671 43.584C86.5373 42.8527 87.0858 42.7613 87.7128 43.3097C88.3396 43.8581 88.4181 44.4978 87.9478 45.2291C87.7128 45.5947 87.4385 46.0059 87.125 46.4628C86.8899 46.8284 86.2238 47.651 85.1267 48.9306C84.108 50.1188 83.05 51.2155 81.9529 52.2208C80.9341 53.1348 79.6019 54.0487 77.9562 54.9628C76.3889 55.8766 74.8607 56.4251 73.3718 56.6079C71.9612 56.7907 70.8641 56.4708 70.0804 55.6482C69.2184 54.8255 68.709 53.7289 68.5523 52.3579C68.4739 51.1697 68.6306 49.8445 69.0225 48.3822C69.4927 46.28 70.3155 44.4521 71.491 42.8985C72.6665 41.2532 73.9595 40.4764 75.3701 40.5679C76.0754 40.6592 76.624 40.9791 77.0158 41.5275C77.486 42.0759 77.6819 42.7157 77.6035 43.4468C77.5252 45.0005 76.7415 46.6456 75.2526 48.3822C73.7636 50.0273 72.353 50.7585 71.0208 50.5757ZM86.6438 43.1726C86.9573 42.9898 87.2708 42.9898 87.5843 43.1726C87.8976 43.2639 88.0936 43.4925 88.1719 43.8581C88.7206 45.4119 89.7001 47.6054 91.1107 50.4387L97.6934 43.4468C98.3204 42.807 98.8689 42.8527 99.3391 43.584C99.8877 44.2237 99.8877 44.8177 99.3391 45.3661L92.2862 52.9063C93.1482 54.4601 93.775 55.2826 94.167 55.374C95.5775 55.5568 97.6542 54.5971 100.397 52.495C103.218 50.3014 105.373 48.4279 106.862 46.8742C108.429 45.3204 109.527 44.178 110.154 43.4468C110.702 42.807 111.251 42.807 111.799 43.4468C112.348 44.0866 112.348 44.7264 111.799 45.3661C111.486 45.7318 111.055 46.2344 110.506 46.8742C110.036 47.5139 109.017 48.6108 107.45 50.1644C105.961 51.6268 104.511 52.952 103.101 54.1402C101.69 55.2369 100.123 56.1965 98.3987 57.0191C96.6746 57.9331 95.1857 58.2987 93.9318 58.1159C92.7564 57.9331 91.5417 56.882 90.2879 54.9628L83.5875 62.0916C82.9606 62.7313 82.4121 62.6857 81.9419 61.9545C81.3933 61.3148 81.3933 60.7206 81.9419 60.1723L88.9948 52.6322C87.8193 50.2559 86.8398 47.6967 86.056 44.9548C85.7425 44.1322 85.9385 43.5382 86.6438 43.1726ZM113.457 44.9548C113.143 44.772 112.987 44.4521 112.987 43.9952C112.36 44.2693 111.615 45.4119 110.753 47.4226C109.891 49.4333 109.499 51.1241 109.578 52.495C109.578 53.0434 109.656 53.409 109.813 53.5918C109.891 53.6831 110.048 53.7289 110.283 53.7289C111.694 53.6375 113.496 52.6778 115.69 50.8499C117.885 49.0219 119.491 47.5139 120.51 46.3258C121.607 45.0463 122.351 44.0866 122.743 43.4468C123.292 42.807 123.84 42.807 124.389 43.4468C125.016 43.9952 125.055 44.6349 124.507 45.3661C124.35 45.6403 124.076 46.0059 123.684 46.4628C123.292 46.9199 122.547 47.788 121.45 49.0677C120.353 50.3472 119.256 51.4896 118.159 52.495C117.14 53.409 115.886 54.2773 114.397 55.0998C112.987 55.9224 111.654 56.3793 110.401 56.4708C109.46 56.5621 108.716 56.2422 108.167 55.511C107.619 54.6885 107.305 53.7289 107.227 52.6322C107.148 50.53 107.697 48.1537 108.872 45.5032C109.97 42.8527 111.302 41.436 112.869 41.2532C114.593 41.0706 115.494 41.7103 115.573 43.1726C115.573 43.721 115.377 44.2693 114.985 44.8177C114.515 45.3661 114.006 45.4119 113.457 44.9548ZM135.25 1.35896C135.564 0.536407 136.073 0.307907 136.778 0.673488C137.484 0.947682 137.719 1.54175 137.484 2.45572C137.484 2.45572 134.467 12.4636 128.433 32.4793C123.809 48.8391 121.615 58.5271 121.85 61.5432C125.298 60.355 131.645 54.3229 140.893 43.4468C141.441 42.807 141.99 42.807 142.538 43.4468C143.087 44.0866 143.087 44.7264 142.538 45.3661C142.538 45.3661 140.187 48.0623 135.485 53.4547C129.138 60.3094 124.553 63.9652 121.732 64.4222C121.027 64.5136 120.518 64.2851 120.204 63.7367C119.812 63.1884 119.577 62.5942 119.499 61.9545C118.95 56.1965 123.574 38.0088 133.369 7.39109L127.375 20.278C127.688 19.2726 130.274 13.0576 135.133 1.63315C135.211 1.45036 135.25 1.35896 135.25 1.35896ZM140.695 43.721C141.087 42.8985 141.636 42.6699 142.341 43.0356C143.046 43.4012 143.203 43.9952 142.811 44.8177C141.636 48.0166 141.009 50.2559 140.93 51.5353C141.792 51.0784 142.968 50.1188 144.457 48.6563C146.024 47.194 147.356 45.8688 148.453 44.6807L150.099 42.7613C150.726 42.0302 151.314 42.0302 151.862 42.7613C152.176 43.2184 152.254 43.721 152.097 44.2693C151.862 44.7264 151.588 45.6403 151.275 47.0112C150.961 48.2907 150.687 49.7988 150.452 51.5353C150.295 53.1804 150.491 54.0945 151.04 54.2773C152.137 54.917 154.331 53.6831 157.622 50.5757C160.914 47.4682 163.225 45.092 164.558 43.4468C165.106 42.807 165.655 42.807 166.203 43.4468C166.752 44.0866 166.791 44.7264 166.321 45.3661C166.164 45.4575 166.007 45.6403 165.851 45.9146C165.694 46.0974 165.341 46.5086 164.793 47.1483C164.323 47.788 163.813 48.4279 163.265 49.0677C162.716 49.6161 162.05 50.3014 161.266 51.1241C160.483 51.9467 159.738 52.6778 159.033 53.3175C158.328 53.8659 157.505 54.5057 156.564 55.2369C155.702 55.8766 154.919 56.3336 154.213 56.6079C153.508 56.7907 152.724 56.9735 151.862 57.1563C151.079 57.3389 150.452 57.2019 149.982 56.7449C148.101 55.6482 147.591 52.8606 148.453 48.3822C147.435 49.4789 146.573 50.3472 145.867 50.9869C145.24 51.6268 144.418 52.3121 143.399 53.0434C142.458 53.7746 141.636 54.2315 140.93 54.4143C140.382 54.5057 139.872 54.3686 139.402 54.003C138.932 53.546 138.658 53.0434 138.579 52.495C138.501 51.5811 138.658 50.3929 139.05 48.9306C139.363 47.4682 139.716 46.2344 140.108 45.2291L140.695 43.721ZM167.282 58.253C164.147 60.8121 162.423 62.5485 162.109 63.4625C162.109 63.5539 162.109 63.6453 162.109 63.7367C162.815 64.011 163.912 63.3711 165.401 61.8174C166.263 60.9034 166.851 59.9895 167.164 59.0755C167.242 58.8014 167.282 58.5271 167.282 58.253ZM168.692 53.8659C173.551 50.3929 178.958 46.8284 184.914 43.1726C185.619 42.807 186.129 43.0356 186.442 43.8581C186.834 44.5893 186.716 45.1833 186.089 45.6403C179.82 49.3876 174.295 53.0434 169.515 56.6079C169.593 57.0648 169.632 57.5217 169.632 57.9788C169.711 60.1723 168.888 62.1373 167.164 63.8737C165.518 65.6103 163.912 66.4786 162.344 66.4786C161.639 66.4786 161.051 66.2045 160.581 65.6561C160.033 65.1076 159.758 64.3764 159.758 63.4625C159.758 62.64 160.15 61.6804 160.934 60.5835C161.717 59.5782 162.462 58.7556 163.167 58.1159C163.872 57.5675 165.048 56.6536 166.694 55.374C166.537 55.0083 166.106 54.2773 165.401 53.1804C164.774 52.0838 164.264 50.9869 163.873 49.8902C163.481 48.7934 163.324 47.6054 163.402 46.3258C163.481 44.9548 164.029 43.721 165.048 42.6242C165.988 41.436 166.811 40.6592 167.517 40.2936C168.3 39.8367 168.77 39.6081 168.927 39.6081C169.632 39.2425 170.142 39.4711 170.455 40.2936C170.769 41.1162 170.573 41.7103 169.868 42.0759C169.632 42.1673 169.241 42.3958 168.692 42.7613C168.222 43.1269 167.634 43.6753 166.929 44.4065C166.224 45.1376 165.832 45.8231 165.753 46.4628C165.675 47.2854 165.753 48.0623 165.988 48.7934C166.302 49.5246 166.733 50.3929 167.282 51.3983C167.908 52.4036 168.379 53.2262 168.692 53.8659ZM184.664 43.8581C185.056 43.0356 185.604 42.807 186.31 43.1726C187.015 43.5382 187.172 44.1322 186.78 44.9548C186.701 45.2291 186.506 45.8688 186.192 46.8742C185.879 47.788 185.565 48.9306 185.252 50.3014C184.938 51.5811 184.821 52.4494 184.899 52.9063C185.604 52.9063 186.858 52.0838 188.661 50.4387C190.463 48.7021 191.952 47.194 193.128 45.9146C194.303 44.6349 195.047 43.8124 195.361 43.4468C195.91 42.807 196.458 42.807 197.007 43.4468C197.634 44.0866 197.673 44.7264 197.124 45.3661C196.497 46.0974 195.714 47.057 194.773 48.2451C193.833 49.3418 192.266 50.8499 190.071 52.7692C187.955 54.6885 186.231 55.6482 184.899 55.6482C184.115 55.6482 183.528 55.2826 183.136 54.5514C182.744 53.8202 182.548 53.0434 182.548 52.2208C182.548 50.1188 183.253 47.3311 184.664 43.8581ZM185.957 33.7131C185.8 32.7992 186.114 32.2508 186.897 32.068L190.777 31.1084C191.56 30.9255 192.03 31.2912 192.187 32.205C192.344 33.1191 192.03 33.6675 191.247 33.8503L187.368 34.8099C187.054 34.9012 186.741 34.8556 186.427 34.6728C186.192 34.3986 186.035 34.0787 185.957 33.7131ZM209.566 43.1726C213.563 45.1833 218.187 45.1833 223.437 43.1726C224.142 42.807 224.612 43.0813 224.847 43.9952C225.082 44.8177 224.847 45.3661 224.142 45.6403C218.265 48.0166 213.053 48.0166 208.508 45.6403C206.94 48.565 204.825 51.4896 202.161 54.4143C199.574 57.2476 197.498 58.4815 195.93 58.1159C195.46 58.0244 195.108 57.796 194.872 57.4304C194.559 57.1563 194.324 56.7907 194.167 56.3336C194.01 55.7853 193.893 55.2826 193.815 54.8255C193.736 54.2773 193.697 53.6831 193.697 53.0434C193.697 52.3121 193.736 51.6724 193.815 51.1241C193.815 50.5757 193.893 49.936 194.05 49.2048C194.128 48.4735 194.206 47.9253 194.285 47.5597C194.363 47.194 194.481 46.7371 194.637 46.1887C194.716 45.5489 194.755 45.2291 194.755 45.2291C194.833 44.772 194.912 44.4065 194.99 44.1322C195.225 43.2184 195.695 42.8985 196.401 43.1726C197.184 43.3554 197.458 43.8581 197.223 44.6807C197.223 45.0463 197.106 45.9146 196.871 47.2854C196.636 48.6563 196.44 50.2558 196.283 52.0838C196.126 53.8202 196.165 54.917 196.401 55.374C197.341 55.2826 198.947 53.9574 201.22 51.3983C203.571 48.8391 205.335 46.4628 206.51 44.2693C205.099 42.8985 204.785 41.6646 205.57 40.5679C206.039 39.928 206.745 39.6081 207.685 39.6081C208.234 39.6081 208.705 39.8367 209.095 40.2936C209.566 40.6592 209.801 41.1619 209.801 41.8017C209.801 42.2586 209.722 42.7157 209.566 43.1726ZM223.714 47.6967C224.34 47.4226 225.045 46.7827 225.83 45.7773C226.613 44.772 227.084 43.9494 227.24 43.3097C226.926 43.3097 226.573 43.4925 226.181 43.8581C225.79 44.1322 225.359 44.6349 224.889 45.3661C224.418 46.0059 224.026 46.7827 223.714 47.6967ZM223.008 50.5757C222.93 51.1241 222.89 51.6268 222.89 52.0838C222.969 52.8148 223.164 53.3175 223.478 53.5918C223.791 53.8659 224.34 53.9574 225.124 53.8659C227.084 53.5918 229.121 52.6322 231.236 50.9869C233.431 49.2505 235.115 47.5597 236.291 45.9146L238.054 43.584C238.524 42.8527 239.074 42.7613 239.7 43.3097C240.327 43.8581 240.405 44.4978 239.935 45.2291C239.7 45.5947 239.425 46.0059 239.112 46.4628C238.877 46.8284 238.21 47.651 237.114 48.9306C236.095 50.1188 235.038 51.2155 233.94 52.2208C232.922 53.1348 231.589 54.0487 229.943 54.9628C228.376 55.8766 226.847 56.4251 225.359 56.6079C223.949 56.7907 222.851 56.4708 222.068 55.6482C221.206 54.8255 220.696 53.7289 220.54 52.3579C220.461 51.1697 220.618 49.8445 221.009 48.3822C221.48 46.28 222.303 44.4521 223.478 42.8985C224.653 41.2532 225.946 40.4764 227.358 40.5679C228.062 40.6592 228.612 40.9791 229.003 41.5275C229.473 42.0759 229.669 42.7157 229.59 43.4468C229.513 45.0005 228.728 46.6456 227.24 48.3822C225.751 50.0273 224.34 50.7585 223.008 50.5757ZM270.274 25.8988C271.842 20.5979 273.056 15.8452 273.919 11.641C272.665 15.7539 271.451 20.5064 270.274 25.8988ZM263.339 45.7773C263.261 45.7773 263.182 45.7773 263.105 45.7773C262.241 45.7773 261.419 46.0974 260.636 46.7371C259.696 47.4682 258.911 48.5193 258.284 49.8902C257.58 51.2612 257.148 52.4494 256.992 53.4547C256.756 54.4601 256.717 55.0998 256.874 55.374C256.874 55.374 256.913 55.374 256.992 55.374C257.54 55.374 258.442 54.5057 259.696 52.7692C260.871 51.0327 262.085 48.7021 263.339 45.7773ZM267.218 42.8985C266.983 44.178 266.827 45.3661 266.748 46.4628C266.591 48.2907 266.514 49.8902 266.514 51.2612C266.514 52.5407 266.552 53.5461 266.63 54.2773C266.788 55.0083 266.904 55.4197 266.983 55.511C268.002 55.9681 269.726 55.1911 272.155 53.1804C274.584 51.0784 276.583 49.159 278.151 47.4226C279.718 45.5947 280.775 44.2693 281.325 43.4468C281.402 43.4468 281.755 43.584 282.382 43.8581C283.088 44.1322 283.441 44.315 283.441 44.4065C283.441 44.6807 283.323 45.0005 283.088 45.3661C282.853 45.7318 282.461 46.28 281.912 47.0112C281.363 47.7425 280.345 48.9762 278.856 50.7128C277.366 52.3579 275.917 53.7746 274.507 54.9628C273.174 56.1509 271.685 57.1105 270.039 57.8416C268.472 58.5728 267.141 58.6186 266.043 57.9788C264.554 57.2476 263.927 54.5971 264.162 50.0273C261.498 55.4197 259.108 58.1159 256.992 58.1159C256.129 58.1159 255.502 57.7503 255.111 57.0191C254.64 56.288 254.406 55.4654 254.406 54.5514C254.406 52.1751 255.267 49.6617 256.992 47.0112C258.637 44.3608 260.675 43.0356 263.105 43.0356C263.574 43.0356 263.927 43.3097 264.162 43.8581C264.397 43.3097 264.633 42.7157 264.867 42.0759C265.26 39.5168 265.69 36.8206 266.161 33.9874C270 13.3318 273.135 2.9127 275.564 2.72991C276.583 2.63851 277.131 3.36967 277.21 4.92341C277.289 7.02551 276.583 11.0469 275.094 16.9876C273.683 22.837 271.96 28.9148 269.923 35.2211C268.982 37.963 268.081 40.5222 267.218 42.8985ZM281.802 41.8017C282.82 40.1566 283.526 38.8313 283.918 37.826C283.605 38.0088 283.291 38.1916 282.978 38.3744C282.351 38.8313 281.919 39.4253 281.684 40.1566C281.449 40.8878 281.489 41.436 281.802 41.8017ZM283.918 43.0356C285.015 43.2184 286.347 43.1269 287.915 42.7613C288.228 42.6699 288.502 42.7613 288.737 43.0356C289.051 43.3097 289.208 43.6296 289.208 43.9952C289.285 44.178 289.285 44.4065 289.208 44.6807C289.051 44.9548 288.776 45.7773 288.384 47.1483C288.071 48.4279 287.718 49.9816 287.327 51.8095C286.935 53.6375 286.817 54.8255 286.974 55.374C288.542 55.2826 290.657 54.1858 293.321 52.0838C295.987 49.8902 297.984 48.1081 299.317 46.7371C300.727 45.2747 301.707 44.178 302.255 43.4468C302.803 42.807 303.353 42.807 303.901 43.4468C304.528 44.0866 304.568 44.7264 304.018 45.3661C303.704 45.7318 303.314 46.1887 302.843 46.7371C302.373 47.2854 301.393 48.2907 299.905 49.7532C298.493 51.2155 297.123 52.5407 295.79 53.7289C294.457 54.8255 292.969 55.8309 291.324 56.7449C289.678 57.659 288.189 58.1159 286.856 58.1159C285.289 58.1159 284.545 56.882 284.622 54.4143C284.622 52.495 285.172 49.6161 286.269 45.7773C284.701 45.9601 283.37 45.8231 282.272 45.3661C281.724 45.5489 281.292 45.5032 280.979 45.2291C280.822 45.0463 280.665 44.7264 280.509 44.2693C279.647 43.2639 279.255 42.1215 279.334 40.842C279.334 39.4711 279.725 38.2829 280.509 37.2776C281.371 36.0894 282.467 35.3583 283.8 35.084C285.289 34.7184 286.15 35.3126 286.387 36.8664C286.543 38.0545 285.72 40.1108 283.918 43.0356ZM306.094 43.721C305.86 43.0813 305.351 42.7613 304.566 42.7613H304.684C304.998 43.1269 305.467 43.4468 306.094 43.721ZM303.744 45.3661C303.901 46.3715 303.588 46.9655 302.803 47.1483C302.569 47.2398 302.255 47.6967 301.863 48.5193C301.471 49.2505 301.275 49.9816 301.275 50.7128C301.275 51.1697 301.354 51.4896 301.51 51.6724C301.589 51.7639 301.784 51.8095 302.098 51.8095C302.803 51.8095 303.548 51.3068 304.331 50.3014C305.116 49.2048 305.664 47.9709 305.978 46.6C305.116 46.2344 304.371 45.8231 303.744 45.3661ZM308.563 44.5436C312.09 45.2747 316.243 44.772 321.024 43.0356C321.807 42.8527 322.317 43.2184 322.552 44.1322C322.787 44.9548 322.512 45.5032 321.729 45.7773C316.635 47.5139 312.169 48.0166 308.328 47.2854C307.859 49.1134 307.074 50.7585 305.978 52.2208C304.88 53.6831 303.626 54.4601 302.216 54.5514C301.197 54.5514 300.414 54.1858 299.865 53.4547C299.238 52.7235 298.925 51.8095 298.925 50.7128C298.925 49.4333 299.238 48.1537 299.865 46.8742C300.492 45.5032 301.315 44.6807 302.334 44.4065C302.49 44.4065 302.529 44.4065 302.451 44.4065C302.608 44.4065 302.687 44.4065 302.687 44.4065C301.589 42.9441 301.549 41.7103 302.569 40.705C302.961 40.3394 303.43 40.1108 303.979 40.0195C305.39 39.8367 306.487 40.2023 307.271 41.1162C308.133 42.0302 308.563 43.1726 308.563 44.5436ZM320.465 43.9952C320.622 43.1726 321.092 42.8985 321.876 43.1726C322.659 43.3554 322.933 43.9038 322.699 44.8177L315.646 73.3333C317.448 69.1291 318.937 65.6561 320.112 62.9141C321.289 60.1723 322.738 57.0648 324.462 53.5918C326.186 50.1188 327.792 47.4682 329.282 45.6403C330.771 43.8124 332.102 42.807 333.279 42.6242C334.375 42.5329 335.276 42.7157 335.982 43.1726C336.765 43.5382 337.275 44.178 337.51 45.092C337.823 45.9146 338.019 46.6914 338.098 47.4226C338.254 48.0623 338.332 48.9306 338.332 50.0273C338.332 51.0327 338.332 51.6268 338.332 51.8095C338.411 52.4494 338.49 52.8606 338.567 53.0434C338.646 53.1349 338.881 53.1349 339.273 53.0434C340.371 52.8606 341.938 51.9009 343.975 50.1644C346.091 48.4279 347.658 47.0112 348.678 45.9146C349.774 44.8177 350.519 43.9952 350.91 43.4468C351.46 42.807 352.008 42.807 352.556 43.4468C353.104 44.0866 353.104 44.7264 352.556 45.3661C352.008 46.0974 351.263 47.0112 350.322 48.1081C349.382 49.1134 347.737 50.5757 345.385 52.495C343.113 54.4143 341.154 55.511 339.508 55.7853C338.411 55.9681 337.589 55.6938 337.039 54.9628C336.491 54.1402 336.177 53.1804 336.099 52.0838C336.021 51.444 335.943 50.7128 335.864 49.8902C335.864 48.9762 335.825 48.2907 335.747 47.8338C335.747 47.3769 335.668 46.9199 335.511 46.4628C335.434 46.0059 335.237 45.7318 334.923 45.6403C334.61 45.4575 334.14 45.3661 333.513 45.3661C332.025 45.5489 329.321 49.6617 325.402 57.7045C321.563 65.8389 318.467 72.8764 316.115 78.817C313.765 84.8491 312.158 88.962 311.296 91.1556C311.062 91.7953 310.63 92.0694 310.003 91.9781C309.141 91.7953 308.828 91.2011 309.063 90.1958L320.465 43.9952Z" fill="#CFF800"/>
</svg>
