<svg width="179" height="58" viewBox="0 0 179 58" fill="none" xmlns="http://www.w3.org/2000/svg">
<path d="M2.0687 30.1576C2.46198 29.9856 2.90444 29.5842 3.39606 28.9535C3.88767 28.3228 4.18263 27.8068 4.28096 27.4054C4.08431 27.4054 3.86309 27.5201 3.61728 27.7495C3.37147 27.9214 3.10108 28.2368 2.80612 28.6955C2.51115 29.0968 2.26534 29.5842 2.0687 30.1576ZM1.62624 31.9636C1.57709 32.3077 1.5525 32.623 1.5525 32.9097C1.60166 33.3683 1.72456 33.6836 1.92121 33.8557C2.11786 34.0277 2.46198 34.0851 2.9536 34.0277C4.18263 33.8557 5.46084 33.2537 6.78819 32.2216C8.16468 31.1323 9.22171 30.0716 9.95907 29.0395L11.0652 27.5775C11.3602 27.1188 11.7043 27.0614 12.0976 27.4054C12.4909 27.7495 12.5401 28.1508 12.2451 28.6095C12.0976 28.8389 11.9256 29.0968 11.7289 29.3835C11.5814 29.6129 11.1636 30.1289 10.4753 30.9316C9.83621 31.677 9.17251 32.365 8.48428 32.9957C7.84517 33.5691 7.00942 34.1424 5.97703 34.7158C4.9938 35.2891 4.03515 35.6331 3.10108 35.7478C2.21618 35.8625 1.52792 35.6618 1.03631 35.1458C0.495535 34.6297 0.175982 33.9417 0.0776588 33.0816C0.0284978 32.3363 0.126821 31.5049 0.372628 30.5876C0.667592 29.2688 1.18379 28.1221 1.92121 27.1475C2.65864 26.1154 3.4698 25.628 4.3547 25.6854C4.79715 25.7427 5.14128 25.9434 5.38709 26.2874C5.68206 26.6315 5.80496 27.0328 5.7558 27.4914C5.70664 28.4661 5.21503 29.4982 4.28096 30.5876C3.34689 31.6196 2.46198 32.0783 1.62624 31.9636ZM11.427 27.3194C11.6237 27.2048 11.8203 27.2048 12.017 27.3194C12.2136 27.3767 12.3365 27.5201 12.3856 27.7495C12.7298 28.7242 13.3443 30.1003 14.2292 31.8777L18.3588 27.4914C18.7521 27.0901 19.0962 27.1188 19.3912 27.5775C19.7353 27.9788 19.7353 28.3515 19.3912 28.6955L14.9667 33.4257C15.5074 34.4004 15.9007 34.9164 16.1466 34.9737C17.0314 35.0884 18.3342 34.4864 20.0548 33.1676C21.8247 31.7916 23.1766 30.6163 24.1106 29.6415C25.0939 28.6668 25.7822 27.9501 26.1754 27.4914C26.5196 27.0901 26.8637 27.0901 27.2078 27.4914C27.552 27.8928 27.552 28.2942 27.2078 28.6955C27.0112 28.9249 26.7408 29.2402 26.3967 29.6415C26.1017 30.0429 25.4626 30.731 24.4794 31.7056C23.5454 32.623 22.6359 33.4544 21.751 34.1998C20.866 34.8877 19.8828 35.4897 18.8012 36.0057C17.7197 36.5791 16.7857 36.8085 15.999 36.6938C15.2617 36.5791 14.4996 35.9198 13.7131 34.7158L9.50971 39.1879C9.11647 39.5892 8.77235 39.5606 8.47736 39.1019C8.13325 38.7006 8.13325 38.3278 8.47736 37.9839L12.9019 33.2537C12.1645 31.763 11.55 30.1576 11.0583 28.4375C10.8616 27.9214 10.9846 27.5488 11.427 27.3194ZM28.2478 28.4375C28.0511 28.3228 27.9528 28.1221 27.9528 27.8355C27.5594 28.0074 27.0924 28.7242 26.5516 29.9856C26.0108 31.247 25.7651 32.3077 25.8143 33.1676C25.8143 33.5117 25.8634 33.741 25.9617 33.8557C26.0108 33.913 26.1092 33.9417 26.2567 33.9417C27.1416 33.8844 28.2723 33.2823 29.6488 32.1356C31.0254 30.9889 32.0332 30.0429 32.6722 29.2975C33.3605 28.4948 33.8276 27.8928 34.0734 27.4914C34.4175 27.0901 34.7616 27.0901 35.1057 27.4914C35.499 27.8355 35.5236 28.2368 35.1795 28.6955C35.0812 28.8675 34.9091 29.0968 34.6633 29.3835C34.4175 29.6702 33.9504 30.2148 33.2622 31.0176C32.574 31.8203 31.8857 32.5369 31.1974 33.1676C30.5583 33.741 29.7718 34.2857 28.8377 34.8017C27.9528 35.3178 27.117 35.6044 26.3304 35.6618C25.7405 35.7191 25.2735 35.5184 24.9293 35.0597C24.5852 34.5437 24.3885 33.9417 24.3394 33.2537C24.2902 31.9349 24.6344 30.4442 25.3717 28.7815C26.0601 27.1188 26.8958 26.23 27.879 26.1154C28.9606 26.0008 29.5259 26.4021 29.5751 27.3194C29.5751 27.6635 29.4522 28.0074 29.2064 28.3515C28.9114 28.6955 28.5919 28.7242 28.2478 28.4375ZM41.9194 1.08845C42.116 0.572434 42.4356 0.429089 42.8781 0.65843C43.3205 0.83044 43.468 1.20312 43.3205 1.77648C43.3205 1.77648 41.4278 8.05472 37.6424 20.6112C34.7418 30.8742 33.3653 36.9518 33.5128 38.8439C35.6759 38.0985 39.6579 34.3143 45.459 27.4914C45.8031 27.0901 46.1472 27.0901 46.4914 27.4914C46.8356 27.8928 46.8356 28.2942 46.4914 28.6955C46.4914 28.6955 45.0166 30.3869 42.0669 33.7697C38.0848 38.0699 35.2089 40.3633 33.439 40.6499C32.9966 40.7073 32.6771 40.564 32.4804 40.2199C32.2346 39.876 32.0871 39.5032 32.038 39.1019C31.6938 35.4897 34.5944 24.08 40.7395 4.87259L36.9787 12.9569C37.1753 12.3262 38.7977 8.42739 41.8456 1.26046C41.8949 1.14578 41.9194 1.08845 41.9194 1.08845ZM45.3352 27.6635C45.581 27.1475 45.9251 27.0041 46.3675 27.2335C46.81 27.4628 46.9083 27.8355 46.6625 28.3515C45.9251 30.3582 45.5318 31.763 45.4826 32.5656C46.0234 32.279 46.7608 31.677 47.6949 30.7596C48.6782 29.8422 49.5138 29.0109 50.2022 28.2655L51.2345 27.0614C51.6278 26.6028 51.9965 26.6028 52.3407 27.0614C52.5373 27.3481 52.5864 27.6635 52.4881 28.0074C52.3407 28.2942 52.1686 28.8675 51.9719 29.7275C51.7753 30.5302 51.6032 31.4762 51.4558 32.5656C51.3574 33.5977 51.4803 34.1711 51.8245 34.2857C52.5127 34.6871 53.8893 33.913 55.954 31.9636C58.0188 30.0142 59.4691 28.5235 60.3048 27.4914C60.649 27.0901 60.9931 27.0901 61.3372 27.4914C61.6813 27.8928 61.7059 28.2942 61.4109 28.6955C61.3126 28.7528 61.2142 28.8675 61.116 29.0395C61.0177 29.1542 60.7964 29.4122 60.4523 29.8135C60.1573 30.2148 59.8378 30.6163 59.4937 31.0176C59.1495 31.3616 58.7316 31.7916 58.24 32.3077C57.7484 32.8237 57.2814 33.2823 56.8389 33.6836C56.3965 34.0277 55.8803 34.429 55.2903 34.8877C54.7495 35.2891 54.258 35.5757 53.8155 35.7478C53.373 35.8625 52.8814 35.9771 52.3407 36.0918C51.849 36.2064 51.4558 36.1204 51.1608 35.8338C49.9809 35.1458 49.6614 33.397 50.2022 30.5876C49.5631 31.2756 49.0223 31.8203 48.5798 32.2216C48.1865 32.623 47.6703 33.053 47.0312 33.5117C46.4413 33.9704 45.9251 34.257 45.4826 34.3717C45.1385 34.429 44.8189 34.343 44.524 34.1137C44.229 33.827 44.057 33.5117 44.0078 33.1676C43.9586 32.5943 44.057 31.849 44.3028 30.9316C44.4994 30.0142 44.7206 29.2402 44.9665 28.6095L45.3352 27.6635ZM62.0136 36.7798C60.0471 38.3852 58.9656 39.4745 58.7689 40.0479C58.7689 40.1052 58.7689 40.1626 58.7689 40.2199C59.2114 40.392 59.8996 39.9906 60.8337 39.0159C61.3745 38.4425 61.7432 37.8692 61.9398 37.2958C61.989 37.1238 62.0136 36.9518 62.0136 36.7798ZM62.8985 34.0277C65.9464 31.849 69.3385 29.6129 73.0749 27.3194C73.5173 27.0901 73.8369 27.2335 74.0335 27.7495C74.2793 28.2082 74.2055 28.5808 73.8123 28.8675C69.8793 31.2183 66.4135 33.5117 63.4146 35.7478C63.4638 36.0344 63.4884 36.3211 63.4884 36.6078C63.5376 37.9839 63.0214 39.2166 61.9398 40.3059C60.9074 41.3953 59.8996 41.94 58.9164 41.94C58.4739 41.94 58.1052 41.768 57.8102 41.424C57.4661 41.08 57.294 40.6212 57.294 40.0479C57.294 39.5319 57.5398 38.9299 58.0315 38.2419C58.523 37.6112 58.9901 37.0952 59.4325 36.6938C59.875 36.3498 60.6124 35.7765 61.6448 34.9737C61.5465 34.7444 61.2761 34.2857 60.8337 33.5977C60.4404 32.9097 60.1208 32.2216 59.875 31.5336C59.6292 30.8455 59.5309 30.1003 59.5801 29.2975C59.6292 28.4375 59.9733 27.6635 60.6124 26.9754C61.2024 26.23 61.7186 25.7427 62.161 25.5134C62.6527 25.2267 62.9476 25.0833 63.0459 25.0833C63.4884 24.854 63.8079 24.9974 64.0046 25.5134C64.2012 26.0294 64.0783 26.4021 63.6359 26.6315C63.4883 26.6888 63.2426 26.8321 62.8985 27.0614C62.6035 27.2908 62.2347 27.6348 61.7923 28.0935C61.3498 28.5521 61.1041 28.9822 61.0549 29.3835C61.0057 29.8995 61.0549 30.3869 61.2024 30.8455C61.3991 31.3043 61.6694 31.849 62.0136 32.4797C62.4068 33.1103 62.7018 33.6264 62.8985 34.0277ZM72.9182 27.7495C73.164 27.2335 73.5081 27.0901 73.9505 27.3194C74.393 27.5488 74.4913 27.9214 74.2455 28.4375C74.1963 28.6095 74.0735 29.0109 73.8768 29.6415C73.6801 30.2148 73.4835 30.9316 73.2869 31.7916C73.0902 32.5943 73.0165 33.139 73.0656 33.4257C73.5081 33.4257 74.2946 32.9097 75.4254 31.8777C76.5561 30.7882 77.4902 29.8422 78.2276 29.0395C78.965 28.2368 79.432 27.7208 79.6287 27.4914C79.9728 27.0901 80.317 27.0901 80.6611 27.4914C81.0543 27.8928 81.0789 28.2942 80.7348 28.6955C80.3415 29.1542 79.8499 29.7562 79.26 30.5016C78.6701 31.1896 77.6868 32.1356 76.3103 33.3397C74.983 34.5437 73.9014 35.1458 73.0656 35.1458C72.574 35.1458 72.2054 34.9164 71.9595 34.4577C71.7137 33.999 71.5908 33.5117 71.5908 32.9957C71.5908 31.677 72.0332 29.9282 72.9182 27.7495ZM73.7293 21.3852C73.631 20.8119 73.8277 20.4678 74.3192 20.3532L76.7527 19.7512C77.2444 19.6365 77.5393 19.8658 77.6376 20.4391C77.736 21.0125 77.5393 21.3566 77.0477 21.4713L74.6142 22.0733C74.4176 22.1305 74.2209 22.102 74.0243 21.9873C73.8768 21.8152 73.7785 21.6145 73.7293 21.3852ZM88.5401 27.3194C91.0473 28.5808 93.9479 28.5808 97.2417 27.3194C97.6836 27.0901 97.979 27.2622 98.1263 27.8355C98.2736 28.3515 98.1263 28.6955 97.6836 28.8675C93.9972 30.3582 90.7272 30.3582 87.8761 28.8675C86.8928 30.7023 85.5655 32.5369 83.8943 34.3717C82.2717 36.1491 80.9691 36.9232 79.9859 36.6938C79.6909 36.6364 79.4697 36.4932 79.3222 36.2638C79.1256 36.0918 78.978 35.8625 78.8797 35.5757C78.7814 35.2318 78.7077 34.9164 78.6585 34.6297C78.6093 34.2857 78.5848 33.913 78.5848 33.5117C78.5848 33.053 78.6093 32.6516 78.6585 32.3077C78.6585 31.9636 78.7077 31.5623 78.806 31.1036C78.8552 30.6449 78.9043 30.3009 78.9535 30.0716C79.0027 29.8422 79.0764 29.5556 79.1747 29.2115C79.2239 28.8102 79.2484 28.6095 79.2484 28.6095C79.2976 28.3228 79.3468 28.0935 79.396 27.9214C79.5434 27.3481 79.8384 27.1475 80.2809 27.3194C80.7724 27.4341 80.9445 27.7495 80.797 28.2655C80.797 28.4948 80.7233 29.0395 80.5759 29.8995C80.4283 30.7596 80.3055 31.763 80.2071 32.9097C80.1088 33.999 80.1333 34.6871 80.2809 34.9737C80.8708 34.9164 81.8786 34.0851 83.3043 32.4797C84.7789 30.8742 85.8856 29.3835 86.6229 28.0074C85.7375 27.1475 85.5408 26.3734 86.0329 25.6854C86.3275 25.284 86.7702 25.0833 87.3602 25.0833C87.7041 25.0833 87.9995 25.2267 88.2447 25.5134C88.5401 25.7427 88.6874 26.0581 88.6874 26.4594C88.6874 26.746 88.638 27.0328 88.5401 27.3194ZM97.4154 30.1576C97.8078 29.9856 98.2505 29.5842 98.7426 28.9535C99.2338 28.3228 99.5292 27.8068 99.6272 27.4054C99.4305 27.4054 99.2092 27.5201 98.9631 27.7495C98.7179 27.9214 98.4472 28.2368 98.1526 28.6955C97.8572 29.0968 97.6112 29.5842 97.4154 30.1576ZM96.9727 31.9636C96.9233 32.3077 96.8986 32.623 96.8986 32.9097C96.948 33.3683 97.0706 33.6836 97.2672 33.8557C97.4639 34.0277 97.8078 34.0851 98.2999 34.0277C99.5292 33.8557 100.807 33.2537 102.134 32.2216C103.511 31.1323 104.568 30.0716 105.306 29.0395L106.412 27.5775C106.706 27.1188 107.051 27.0614 107.444 27.4054C107.838 27.7495 107.886 28.1508 107.592 28.6095C107.444 28.8389 107.271 29.0968 107.075 29.3835C106.927 29.6129 106.509 30.1289 105.822 30.9316C105.182 31.677 104.519 32.365 103.83 32.9957C103.192 33.5691 102.356 34.1424 101.323 34.7158C100.34 35.2891 99.3811 35.6331 98.4472 35.7478C97.5626 35.8625 96.8739 35.6618 96.3827 35.1458C95.8421 34.6297 95.522 33.9417 95.4241 33.0816C95.3747 32.3363 95.4734 31.5049 95.7186 30.5876C96.014 29.2688 96.53 28.1221 97.2672 27.1475C98.0045 26.1154 98.8158 25.628 99.7012 25.6854C100.143 25.7427 100.488 25.9434 100.733 26.2874C101.028 26.6315 101.151 27.0328 101.102 27.4914C101.053 28.4661 100.561 29.4982 99.6272 30.5876C98.6932 31.6196 97.8078 32.0783 96.9727 31.9636ZM126.624 16.483C127.607 13.1576 128.369 10.1761 128.911 7.5387C128.124 10.1188 127.362 13.1002 126.624 16.483ZM122.274 28.9535C122.224 28.9535 122.175 28.9535 122.126 28.9535C121.585 28.9535 121.069 29.1542 120.578 29.5556C119.988 30.0142 119.496 30.6736 119.102 31.5336C118.66 32.3937 118.39 33.139 118.292 33.7697C118.144 34.4004 118.119 34.8018 118.218 34.9737C118.218 34.9737 118.242 34.9737 118.292 34.9737C118.636 34.9737 119.201 34.429 119.988 33.3397C120.725 32.2503 121.487 30.7882 122.274 28.9535ZM124.707 27.1475C124.559 27.9501 124.462 28.6955 124.412 29.3835C124.313 30.5302 124.265 31.5336 124.265 32.3937C124.265 33.1963 124.289 33.827 124.338 34.2857C124.437 34.7444 124.51 35.0024 124.559 35.0597C125.199 35.3465 126.28 34.859 127.804 33.5977C129.328 32.279 130.582 31.0749 131.565 29.9856C132.548 28.8389 133.212 28.0074 133.556 27.4914C133.605 27.4914 133.826 27.5775 134.22 27.7495C134.662 27.9214 134.884 28.0361 134.884 28.0935C134.884 28.2655 134.81 28.4662 134.662 28.6955C134.515 28.9249 134.269 29.2688 133.925 29.7275C133.58 30.1863 132.942 30.9602 132.008 32.0496C131.073 33.0817 130.164 33.9704 129.279 34.7158C128.443 35.4611 127.509 36.0631 126.477 36.5218C125.493 36.9805 124.658 37.0092 123.969 36.6078C123.036 36.1491 122.642 34.4864 122.79 31.6196C121.118 35.0024 119.619 36.6938 118.292 36.6938C117.75 36.6938 117.357 36.4645 117.112 36.0057C116.816 35.5471 116.669 35.0311 116.669 34.4577C116.669 32.967 117.21 31.3902 118.292 29.7275C119.324 28.0648 120.602 27.2335 122.126 27.2335C122.421 27.2335 122.642 27.4054 122.79 27.7495C122.937 27.4054 123.085 27.0328 123.232 26.6315C123.478 25.026 123.748 23.3346 124.044 21.5572C126.452 8.5994 128.419 2.06316 129.943 1.94849C130.582 1.89115 130.926 2.34983 130.975 3.32454C131.025 4.64325 130.582 7.16601 129.648 10.8928C128.763 14.5623 127.681 18.3751 126.403 22.3312C125.813 24.0513 125.248 25.6567 124.707 27.1475ZM133.856 26.4594C134.495 25.4274 134.937 24.596 135.183 23.9653C134.987 24.08 134.79 24.1947 134.593 24.3094C134.2 24.596 133.929 24.9687 133.782 25.4274C133.635 25.8861 133.659 26.23 133.856 26.4594ZM135.183 27.2335C135.871 27.3481 136.707 27.2908 137.69 27.0614C137.887 27.0041 138.059 27.0614 138.206 27.2335C138.403 27.4054 138.502 27.6061 138.502 27.8355C138.55 27.9501 138.55 28.0935 138.502 28.2655C138.403 28.4375 138.231 28.9535 137.985 29.8135C137.788 30.6163 137.567 31.5909 137.322 32.7376C137.076 33.8844 137.002 34.6297 137.1 34.9737C138.084 34.9164 139.411 34.2284 141.082 32.9097C142.754 31.5336 144.007 30.4156 144.843 29.5556C145.728 28.6381 146.343 27.9501 146.687 27.4914C147.031 27.0901 147.375 27.0901 147.719 27.4914C148.113 27.8928 148.137 28.2942 147.793 28.6955C147.596 28.9249 147.351 29.2115 147.055 29.5556C146.761 29.8995 146.146 30.5302 145.212 31.4476C144.327 32.365 143.467 33.1963 142.631 33.9417C141.795 34.6297 140.861 35.2604 139.829 35.8338C138.796 36.4072 137.862 36.6938 137.026 36.6938C136.043 36.6938 135.577 35.9198 135.625 34.3717C135.625 33.1676 135.97 31.3616 136.658 28.9535C135.674 29.0681 134.839 28.9822 134.151 28.6955C133.807 28.8102 133.536 28.7815 133.339 28.6095C133.241 28.4948 133.143 28.2942 133.045 28.0074C132.504 27.3767 132.258 26.6601 132.307 25.8574C132.307 24.9974 132.553 24.252 133.045 23.6213C133.585 22.8759 134.273 22.4173 135.109 22.2452C136.043 22.0159 136.584 22.3886 136.732 23.3633C136.83 24.1087 136.314 25.3987 135.183 27.2335ZM149.095 27.6635C148.948 27.2622 148.629 27.0614 148.137 27.0614H148.211C148.407 27.2908 148.702 27.4914 149.095 27.6635ZM147.621 28.6955C147.719 29.3262 147.523 29.6988 147.031 29.8135C146.883 29.8709 146.687 30.1576 146.441 30.6736C146.195 31.1323 146.072 31.5909 146.072 32.0496C146.072 32.3363 146.121 32.5369 146.219 32.6516C146.269 32.709 146.391 32.7376 146.588 32.7376C147.031 32.7376 147.498 32.4223 147.989 31.7916C148.481 31.1036 148.825 30.3295 149.022 29.4696C148.481 29.2402 148.014 28.9822 147.621 28.6955ZM150.644 28.1795C152.856 28.6381 155.462 28.3228 158.461 27.2335C158.952 27.1188 159.272 27.3481 159.419 27.9214C159.567 28.4375 159.395 28.7815 158.903 28.9535C155.708 30.0429 152.906 30.3582 150.496 29.8995C150.202 31.0463 149.71 32.0783 149.022 32.9957C148.333 33.913 147.547 34.4004 146.662 34.4577C146.023 34.4577 145.531 34.2284 145.187 33.7697C144.794 33.311 144.597 32.7376 144.597 32.0496C144.597 31.247 144.794 30.4442 145.187 29.6415C145.581 28.7815 146.097 28.2655 146.736 28.0935C146.834 28.0935 146.859 28.0935 146.809 28.0935C146.908 28.0935 146.957 28.0935 146.957 28.0935C146.269 27.1761 146.244 26.4021 146.883 25.7714C147.129 25.5421 147.424 25.3987 147.768 25.3414C148.653 25.2267 149.341 25.4561 149.833 26.0294C150.374 26.6028 150.644 27.3194 150.644 28.1795ZM158.11 27.8355C158.209 27.3194 158.504 27.1475 158.996 27.3194C159.487 27.4341 159.659 27.7782 159.512 28.3515L155.087 46.2402C156.218 43.6027 157.152 41.424 157.889 39.7039C158.627 37.9839 159.536 36.0344 160.617 33.8557C161.7 31.677 162.707 30.0142 163.641 28.8675C164.575 27.7208 165.411 27.0901 166.149 26.9754C166.837 26.9181 167.402 27.0328 167.845 27.3194C168.336 27.5488 168.656 27.9501 168.803 28.5235C169 29.0395 169.122 29.5269 169.172 29.9856C169.27 30.3869 169.319 30.9316 169.319 31.6196C169.319 32.2503 169.319 32.623 169.319 32.7376C169.368 33.139 169.418 33.397 169.466 33.5117C169.516 33.5691 169.663 33.5691 169.909 33.5117C170.598 33.397 171.581 32.795 172.859 31.7056C174.186 30.6163 175.17 29.7275 175.809 29.0395C176.497 28.3515 176.964 27.8355 177.209 27.4914C177.554 27.0901 177.898 27.0901 178.242 27.4914C178.586 27.8928 178.586 28.2942 178.242 28.6955C177.898 29.1542 177.431 29.7275 176.841 30.4156C176.251 31.0463 175.219 31.9636 173.744 33.1676C172.318 34.3717 171.089 35.0597 170.056 35.2318C169.368 35.3465 168.853 35.1744 168.508 34.7158C168.164 34.1998 167.967 33.5977 167.918 32.9097C167.869 32.5083 167.82 32.0496 167.77 31.5336C167.77 30.9602 167.746 30.5302 167.697 30.2435C167.697 29.9569 167.648 29.6702 167.549 29.3835C167.501 29.0968 167.377 28.9249 167.18 28.8675C166.984 28.7528 166.689 28.6955 166.296 28.6955C165.362 28.8102 163.666 31.3902 161.207 36.4358C158.799 41.5387 156.857 45.9535 155.382 49.6803C153.907 53.4644 152.899 56.0446 152.359 57.4206C152.211 57.822 151.941 57.9939 151.547 57.9366C151.007 57.822 150.81 57.4492 150.957 56.8185L158.11 27.8355Z" fill="#CFF800"/>
</svg>
